# xmcd
#
# Track frame offsets:
#	150
#	28496
#	50172
#	67739
#	86344
#	103002
#	124960
#	148416
#	163981
#	184470
#	207425
#	231886
#	247150
#	263723
#
# Disc length: 3764 seconds
#
# Revision: 0
# Processed by: cddbd v1.5PL3 Copyright (c) Steve Scherf et al.
# Submitted via: dBpowerAMP V4.0
#
DISCID=df0eb20e
DTITLE=Dj tiesto  - live in amsterdam:magik 4
DYEAR=1900
DGENRE=
TTITLE0=universal nation
TTITLE1=out of darkness
TTITLE2=el nino
TTITLE3=edless wave
TTITLE4=de ja vu
TTITLE5=mirror
TTITLE6=reflections
TTITLE7=last voyage
TTITLE8=sactificum
TTITLE9=feel free
TTITLE10=twixt
TTITLE11=theme from norefgeii
TTITLE12=evolver
TTITLE13=paradise
EXTD=
EXTT0=
EXTT1=
EXTT2=
EXTT3=
EXTT4=
EXTT5=
EXTT6=
EXTT7=
EXTT8=
EXTT9=
EXTT10=
EXTT11=
EXTT12=
EXTT13=
PLAYORDER=
